<mxfile host="65bd71144e">
    <diagram name="Page-1" id="va71ISP4y1agQrzHW1o9">
        <mxGraphModel dx="203" dy="678" grid="1" gridSize="10" guides="1" tooltips="1" connect="1" arrows="1" fold="1" page="1" pageScale="1" pageWidth="1169" pageHeight="827" math="0" shadow="0">
            <root>
                <mxCell id="0"/>
                <mxCell id="1" parent="0"/>
                <mxCell id="118" value="" style="rounded=0;whiteSpace=wrap;html=1;fillColor=none;strokeWidth=3;strokeColor=#6F0000;fontColor=default;" parent="1" vertex="1">
                    <mxGeometry x="1944.52" y="157.81" width="240" height="279" as="geometry"/>
                </mxCell>
                <mxCell id="164" value="&lt;span style=&quot;&quot;&gt;&lt;font style=&quot;font-size: 12px;&quot;&gt;&lt;br&gt;libvirt-client&lt;br&gt;&lt;br&gt;&lt;/font&gt;&lt;/span&gt;" style="rounded=0;whiteSpace=wrap;html=1;fillColor=none;strokeWidth=2;strokeColor=#82b366;gradientColor=#97d077;fontColor=default;" parent="1" vertex="1">
                    <mxGeometry x="1954.9" y="167.81" width="88.1" height="20" as="geometry"/>
                </mxCell>
                <mxCell id="Me8EsNK5uaYhPXKDHx72-3" value="" style="rounded=0;whiteSpace=wrap;html=1;fillColor=none;strokeWidth=3;strokeColor=#6F0000;fontColor=default;" parent="1" vertex="1">
                    <mxGeometry x="1944.52" y="466.80999999999995" width="240" height="179.72" as="geometry"/>
                </mxCell>
                <mxCell id="Me8EsNK5uaYhPXKDHx72-7" value="&lt;font style=&quot;font-size: 12px;&quot;&gt;libvirt API&lt;/font&gt;" style="rounded=0;whiteSpace=wrap;html=1;fillColor=none;strokeWidth=2;strokeColor=#82b366;gradientColor=#97d077;fontColor=default;" parent="1" vertex="1">
                    <mxGeometry x="1953" y="476.80999999999995" width="220" height="20" as="geometry"/>
                </mxCell>
                <mxCell id="Me8EsNK5uaYhPXKDHx72-8" value="&lt;span style=&quot;&quot;&gt;&lt;font style=&quot;font-size: 12px;&quot;&gt;Linux OS&lt;/font&gt;&lt;/span&gt;" style="rounded=0;whiteSpace=wrap;html=1;fillColor=none;strokeWidth=2;strokeColor=#0e8088;fontColor=default;" parent="1" vertex="1">
                    <mxGeometry x="1953.66" y="566.81" width="219.24" height="20.28" as="geometry"/>
                </mxCell>
                <mxCell id="225" style="edgeStyle=none;html=1;exitX=0.5;exitY=0;exitDx=0;exitDy=0;fillColor=#a20025;strokeColor=#6F0000;strokeWidth=2;entryX=0.498;entryY=0.179;entryDx=0;entryDy=0;entryPerimeter=0;" parent="1" source="Me8EsNK5uaYhPXKDHx72-11" target="Me8EsNK5uaYhPXKDHx72-3" edge="1">
                    <mxGeometry relative="1" as="geometry">
                        <mxPoint x="2044.7600000000002" y="497.80999999999995" as="targetPoint"/>
                    </mxGeometry>
                </mxCell>
                <mxCell id="315" style="edgeStyle=none;html=1;exitX=1;exitY=0.75;exitDx=0;exitDy=0;entryX=1;entryY=0;entryDx=0;entryDy=0;strokeWidth=1;fontSize=10;startArrow=none;startFill=0;endArrow=classic;endFill=1;fillColor=none;dashed=1;" parent="1" source="Me8EsNK5uaYhPXKDHx72-11" target="282" edge="1">
                    <mxGeometry relative="1" as="geometry">
                        <Array as="points">
                            <mxPoint x="2213" y="547.81"/>
                            <mxPoint x="2213" y="227.81"/>
                        </Array>
                    </mxGeometry>
                </mxCell>
                <mxCell id="Me8EsNK5uaYhPXKDHx72-11" value="&lt;font style=&quot;font-size: 12px;&quot;&gt;Open Stack controller node&lt;/font&gt;" style="rounded=0;whiteSpace=wrap;html=1;fillColor=none;strokeWidth=2;strokeColor=#6F0000;fontColor=default;" parent="1" vertex="1">
                    <mxGeometry x="1954" y="516.81" width="219.76" height="41" as="geometry"/>
                </mxCell>
                <mxCell id="Me8EsNK5uaYhPXKDHx72-15" value="&lt;span style=&quot;&quot;&gt;&lt;font style=&quot;font-size: 12px;&quot;&gt;Hardware&lt;/font&gt;&lt;/span&gt;" style="rounded=0;whiteSpace=wrap;html=1;fillColor=none;strokeWidth=2;strokeColor=#314354;fontColor=default;" parent="1" vertex="1">
                    <mxGeometry x="1953.95" y="596.81" width="220" height="19.72" as="geometry"/>
                </mxCell>
                <mxCell id="Me8EsNK5uaYhPXKDHx72-31" value="" style="rounded=0;whiteSpace=wrap;html=1;fillColor=none;strokeWidth=3;strokeColor=#314354;fontColor=default;" parent="1" vertex="1">
                    <mxGeometry x="1714.76" y="466.80999999999995" width="209.76" height="180" as="geometry"/>
                </mxCell>
                <mxCell id="155" style="edgeStyle=none;html=1;exitX=0.269;exitY=1.03;exitDx=0;exitDy=0;entryX=0.269;entryY=-0.06;entryDx=0;entryDy=0;strokeColor=default;strokeWidth=2;fontSize=21;startArrow=none;startFill=0;endArrow=classic;endFill=1;exitPerimeter=0;entryPerimeter=0;" parent="1" source="Me8EsNK5uaYhPXKDHx72-33" target="Me8EsNK5uaYhPXKDHx72-34" edge="1">
                    <mxGeometry relative="1" as="geometry"/>
                </mxCell>
                <mxCell id="170" style="edgeStyle=none;html=1;exitX=0.728;exitY=0;exitDx=0;exitDy=0;entryX=0.725;entryY=1.064;entryDx=0;entryDy=0;entryPerimeter=0;strokeWidth=2;fontSize=12;startArrow=none;startFill=0;endArrow=classic;endFill=1;exitPerimeter=0;fillColor=none;" parent="1" source="Me8EsNK5uaYhPXKDHx72-33" target="112" edge="1">
                    <mxGeometry relative="1" as="geometry"/>
                </mxCell>
                <mxCell id="Me8EsNK5uaYhPXKDHx72-33" value="&lt;span style=&quot;font-size: 12px;&quot;&gt;KVM-Hypervisor&amp;nbsp;&lt;/span&gt;" style="rounded=0;whiteSpace=wrap;html=1;strokeWidth=2;fontSize=14;fillColor=none;fontColor=default;" parent="1" vertex="1">
                    <mxGeometry x="1724.76" y="516.81" width="189" height="20" as="geometry"/>
                </mxCell>
                <mxCell id="156" style="edgeStyle=none;html=1;exitX=0.272;exitY=1.034;exitDx=0;exitDy=0;entryX=0.272;entryY=-0.046;entryDx=0;entryDy=0;strokeColor=#0e8088;strokeWidth=2;fontSize=21;startArrow=none;startFill=0;endArrow=classic;endFill=1;fillColor=#b0e3e6;entryPerimeter=0;exitPerimeter=0;" parent="1" source="Me8EsNK5uaYhPXKDHx72-34" target="Me8EsNK5uaYhPXKDHx72-35" edge="1">
                    <mxGeometry relative="1" as="geometry"/>
                </mxCell>
                <mxCell id="169" style="edgeStyle=none;html=1;exitX=0.728;exitY=-0.042;exitDx=0;exitDy=0;entryX=0.727;entryY=1.064;entryDx=0;entryDy=0;entryPerimeter=0;strokeColor=#0e8088;strokeWidth=2;fontSize=12;startArrow=none;startFill=0;endArrow=classic;endFill=1;exitPerimeter=0;fillColor=#b0e3e6;" parent="1" source="Me8EsNK5uaYhPXKDHx72-34" target="Me8EsNK5uaYhPXKDHx72-33" edge="1">
                    <mxGeometry relative="1" as="geometry"/>
                </mxCell>
                <mxCell id="Me8EsNK5uaYhPXKDHx72-34" value="&lt;span style=&quot;&quot;&gt;&lt;font style=&quot;font-size: 12px;&quot;&gt;Linux kernel&lt;/font&gt;&lt;/span&gt;" style="rounded=0;whiteSpace=wrap;html=1;fillColor=none;strokeWidth=2;strokeColor=#0e8088;fontColor=default;" parent="1" vertex="1">
                    <mxGeometry x="1724.76" y="556.53" width="189" height="20" as="geometry"/>
                </mxCell>
                <mxCell id="168" style="edgeStyle=none;html=1;exitX=0.727;exitY=-0.034;exitDx=0;exitDy=0;strokeColor=#314354;strokeWidth=2;fontSize=12;startArrow=none;startFill=0;endArrow=classic;endFill=1;exitPerimeter=0;entryX=0.727;entryY=1.059;entryDx=0;entryDy=0;entryPerimeter=0;" parent="1" source="Me8EsNK5uaYhPXKDHx72-35" target="Me8EsNK5uaYhPXKDHx72-34" edge="1">
                    <mxGeometry relative="1" as="geometry">
                        <mxPoint x="1853.76" y="576.81" as="targetPoint"/>
                    </mxGeometry>
                </mxCell>
                <mxCell id="Me8EsNK5uaYhPXKDHx72-35" value="&lt;span style=&quot;&quot;&gt;&lt;font style=&quot;font-size: 12px;&quot;&gt;Hardware (virtualisation enabled)&lt;/font&gt;&lt;/span&gt;" style="rounded=0;whiteSpace=wrap;html=1;fillColor=none;strokeWidth=2;strokeColor=#314354;fontColor=default;" parent="1" vertex="1">
                    <mxGeometry x="1724.76" y="596.53" width="189" height="20" as="geometry"/>
                </mxCell>
                <mxCell id="Me8EsNK5uaYhPXKDHx72-47" value="&lt;font size=&quot;1&quot; style=&quot;&quot;&gt;&lt;b style=&quot;font-size: 12px;&quot;&gt;OpenStack Controller Node&lt;/b&gt;&lt;/font&gt;" style="text;html=1;align=center;verticalAlign=middle;resizable=0;points=[];autosize=1;strokeColor=none;fillColor=none;fontSize=14;fontColor=default;" parent="1" vertex="1">
                    <mxGeometry x="1974.52" y="616.25" width="180" height="30" as="geometry"/>
                </mxCell>
                <mxCell id="Me8EsNK5uaYhPXKDHx72-49" value="&lt;b style=&quot;&quot;&gt;&lt;font style=&quot;font-size: 14px;&quot;&gt;&amp;nbsp;&lt;/font&gt;&lt;/b&gt;" style="text;html=1;align=center;verticalAlign=middle;resizable=0;points=[];autosize=1;strokeColor=none;fillColor=none;fontSize=14;fontColor=default;" parent="1" vertex="1">
                    <mxGeometry x="1788.76" y="616.53" width="30" height="30" as="geometry"/>
                </mxCell>
                <mxCell id="29" value="" style="rounded=0;whiteSpace=wrap;html=1;strokeWidth=3;fillColor=none;strokeColor=#d6b656;gradientColor=#ffd966;" parent="1" vertex="1">
                    <mxGeometry x="1394" y="151.76" width="260" height="212.1" as="geometry"/>
                </mxCell>
                <mxCell id="30" value="&lt;span style=&quot;&quot;&gt;&lt;font style=&quot;font-size: 12px;&quot;&gt;Host OS&lt;/font&gt;&lt;/span&gt;" style="rounded=0;whiteSpace=wrap;html=1;fillColor=none;strokeWidth=2;strokeColor=#0e8088;fontColor=default;" parent="1" vertex="1">
                    <mxGeometry x="1404" y="161.85999999999996" width="238.18" height="23.02" as="geometry"/>
                </mxCell>
                <mxCell id="31" value="&lt;span style=&quot;&quot;&gt;&lt;font style=&quot;font-size: 12px;&quot;&gt;Hardware QEMU emulation&lt;/font&gt;&lt;/span&gt;" style="rounded=0;whiteSpace=wrap;html=1;fillColor=none;strokeWidth=2;strokeColor=#314354;fontColor=default;" parent="1" vertex="1">
                    <mxGeometry x="1404" y="211.86" width="117.18" height="35.25" as="geometry"/>
                </mxCell>
                <mxCell id="50" value="&lt;span style=&quot;&quot;&gt;&lt;font style=&quot;font-size: 12px;&quot;&gt;Hardware KVM virtualisation&lt;/font&gt;&lt;/span&gt;" style="rounded=0;whiteSpace=wrap;html=1;fillColor=none;strokeWidth=2;strokeColor=#314354;fontColor=default;" parent="1" vertex="1">
                    <mxGeometry x="1521.1799999999998" y="211.86" width="121" height="35.25" as="geometry"/>
                </mxCell>
                <mxCell id="335" style="edgeStyle=none;html=1;exitX=0.533;exitY=-0.013;exitDx=0;exitDy=0;entryX=0.66;entryY=0.358;entryDx=0;entryDy=0;entryPerimeter=0;dashed=1;strokeWidth=1;exitPerimeter=0;fillColor=#a20025;strokeColor=#6F0000;" parent="1" source="51" target="118" edge="1">
                    <mxGeometry relative="1" as="geometry"/>
                </mxCell>
                <mxCell id="336" style="edgeStyle=none;html=1;exitX=0.535;exitY=0.01;exitDx=0;exitDy=0;entryX=0.535;entryY=0.358;entryDx=0;entryDy=0;entryPerimeter=0;dashed=1;strokeWidth=1;exitPerimeter=0;fillColor=#a20025;strokeColor=#6F0000;" parent="1" source="51" target="118" edge="1">
                    <mxGeometry relative="1" as="geometry"/>
                </mxCell>
                <mxCell id="337" style="edgeStyle=none;html=1;exitX=0.535;exitY=0.002;exitDx=0;exitDy=0;dashed=1;strokeWidth=1;exitPerimeter=0;fillColor=#a20025;strokeColor=#6F0000;entryX=0.785;entryY=0.358;entryDx=0;entryDy=0;entryPerimeter=0;" parent="1" source="51" target="118" edge="1">
                    <mxGeometry relative="1" as="geometry">
                        <mxPoint x="2133" y="257.81" as="targetPoint"/>
                    </mxGeometry>
                </mxCell>
                <mxCell id="51" value="NOVA compute agent" style="rounded=0;whiteSpace=wrap;html=1;fillColor=none;strokeWidth=2;strokeColor=#6F0000;fontColor=default;" parent="1" vertex="1">
                    <mxGeometry x="2023" y="277.81" width="150" height="20" as="geometry"/>
                </mxCell>
                <mxCell id="52" value="&lt;font size=&quot;1&quot; style=&quot;&quot;&gt;&lt;b style=&quot;font-size: 12px;&quot;&gt;Distributet VM (QEMU VM)&lt;/b&gt;&lt;/font&gt;" style="text;html=1;align=center;verticalAlign=middle;resizable=0;points=[];autosize=1;strokeColor=none;fillColor=none;fontSize=16;fontColor=default;" parent="1" vertex="1">
                    <mxGeometry x="1438.59" y="332.8600000000001" width="170" height="30" as="geometry"/>
                </mxCell>
                <mxCell id="53" value="&lt;span style=&quot;&quot;&gt;&lt;font style=&quot;font-size: 12px;&quot;&gt;Hardware&amp;nbsp;&lt;/font&gt;&lt;/span&gt;" style="rounded=0;whiteSpace=wrap;html=1;fillColor=none;strokeWidth=2;strokeColor=#314354;fontColor=default;" parent="1" vertex="1">
                    <mxGeometry x="1404" y="191.85999999999996" width="238.18" height="20" as="geometry"/>
                </mxCell>
                <mxCell id="54" value="CPU, Memory" style="rounded=0;whiteSpace=wrap;html=1;fillColor=none;strokeWidth=2;strokeColor=#314354;fontColor=default;" parent="1" vertex="1">
                    <mxGeometry x="1521.1799999999998" y="247.11" width="121" height="44.75" as="geometry"/>
                </mxCell>
                <mxCell id="55" value="peripheral devices: motherboard, network adapter, etc." style="rounded=0;whiteSpace=wrap;html=1;fillColor=none;strokeWidth=2;strokeColor=#314354;fontColor=default;" parent="1" vertex="1">
                    <mxGeometry x="1404" y="247.11" width="117.18" height="44.75" as="geometry"/>
                </mxCell>
                <mxCell id="152" style="edgeStyle=none;html=1;exitX=0.275;exitY=1.034;exitDx=0;exitDy=0;entryX=0.274;entryY=-0.098;entryDx=0;entryDy=0;strokeColor=#82b366;strokeWidth=2;fontSize=21;startArrow=none;startFill=0;endArrow=classic;endFill=1;entryPerimeter=0;fillColor=#d5e8d4;gradientColor=#97d077;exitPerimeter=0;" parent="1" source="112" target="Me8EsNK5uaYhPXKDHx72-33" edge="1">
                    <mxGeometry relative="1" as="geometry"/>
                </mxCell>
                <mxCell id="112" value="&lt;span style=&quot;&quot;&gt;&lt;font style=&quot;font-size: 12px;&quot;&gt;&lt;br&gt;libvirtd&lt;br&gt;&lt;br&gt;&lt;/font&gt;&lt;/span&gt;" style="rounded=0;whiteSpace=wrap;html=1;fillColor=none;strokeWidth=2;strokeColor=#82b366;gradientColor=#97d077;fontColor=default;" parent="1" vertex="1">
                    <mxGeometry x="1724.76" y="476.80999999999995" width="189" height="20" as="geometry"/>
                </mxCell>
                <mxCell id="125" value="Hardware (virtualisation enabled)" style="rounded=0;whiteSpace=wrap;html=1;fillColor=none;strokeWidth=2;strokeColor=#314354;fontColor=default;" parent="1" vertex="1">
                    <mxGeometry x="1953" y="386.81" width="220.28" height="20" as="geometry"/>
                </mxCell>
                <mxCell id="161" style="edgeStyle=none;html=1;exitX=0.269;exitY=0.996;exitDx=0;exitDy=0;entryX=0.267;entryY=-0.042;entryDx=0;entryDy=0;entryPerimeter=0;strokeColor=default;strokeWidth=2;fontSize=12;startArrow=none;startFill=0;endArrow=classic;endFill=1;exitPerimeter=0;" parent="1" source="130" target="157" edge="1">
                    <mxGeometry relative="1" as="geometry"/>
                </mxCell>
                <mxCell id="180" style="edgeStyle=none;html=1;entryX=0.431;entryY=1.061;entryDx=0;entryDy=0;strokeWidth=2;fontSize=12;startArrow=none;startFill=0;endArrow=classic;endFill=1;fillColor=none;entryPerimeter=0;exitX=0.22;exitY=-0.007;exitDx=0;exitDy=0;exitPerimeter=0;" parent="1" source="130" target="133" edge="1">
                    <mxGeometry relative="1" as="geometry">
                        <mxPoint x="2003" y="267.81" as="sourcePoint"/>
                    </mxGeometry>
                </mxCell>
                <mxCell id="130" value="&lt;span style=&quot;font-size: 12px;&quot;&gt;Kernel Space - KVM Modules&lt;/span&gt;" style="rounded=0;whiteSpace=wrap;html=1;strokeWidth=2;fontSize=14;fillColor=none;fontColor=default;" parent="1" vertex="1">
                    <mxGeometry x="1953" y="307.81" width="220" height="20" as="geometry"/>
                </mxCell>
                <mxCell id="405" style="edgeStyle=none;html=1;exitX=1;exitY=0.5;exitDx=0;exitDy=0;entryX=-0.013;entryY=0.52;entryDx=0;entryDy=0;entryPerimeter=0;fillColor=#fff2cc;gradientColor=#ffd966;strokeColor=#d6b656;strokeWidth=2;startArrow=classic;startFill=1;endArrow=none;endFill=0;" parent="1" source="140" target="282" edge="1">
                    <mxGeometry relative="1" as="geometry"/>
                </mxCell>
                <mxCell id="140" value="&lt;font style=&quot;&quot;&gt;QEMU VM&lt;br&gt;&lt;/font&gt;" style="rounded=0;whiteSpace=wrap;html=1;fillColor=none;strokeWidth=2;strokeColor=#d6b656;gradientColor=#ffd966;" parent="1" vertex="1">
                    <mxGeometry x="1954.9" y="228.31" width="108.1" height="20" as="geometry"/>
                </mxCell>
                <mxCell id="174" style="edgeStyle=none;html=1;exitX=0.165;exitY=-0.02;exitDx=0;exitDy=0;entryX=0.119;entryY=0.108;entryDx=0;entryDy=0;strokeColor=#d6b656;strokeWidth=2;fontSize=14;startArrow=none;startFill=0;endArrow=classic;endFill=1;fillColor=#fff2cc;gradientColor=#ffd966;exitPerimeter=0;entryPerimeter=0;" parent="1" source="141" target="118" edge="1">
                    <mxGeometry relative="1" as="geometry"/>
                </mxCell>
                <mxCell id="284" style="edgeStyle=none;html=1;exitX=0.998;exitY=0.475;exitDx=0;exitDy=0;entryX=0;entryY=0.5;entryDx=0;entryDy=0;strokeWidth=2;endArrow=none;endFill=0;exitPerimeter=0;fillColor=#fff2cc;gradientColor=#ffd966;strokeColor=#d6b656;startArrow=classic;startFill=1;" parent="1" source="141" target="281" edge="1">
                    <mxGeometry relative="1" as="geometry"/>
                </mxCell>
                <mxCell id="324" style="edgeStyle=none;html=1;exitX=0;exitY=0.5;exitDx=0;exitDy=0;entryX=1.001;entryY=-0.007;entryDx=0;entryDy=0;strokeColor=#d6b656;strokeWidth=3;fontSize=10;startArrow=none;startFill=0;endArrow=classic;endFill=1;fillColor=#fff2cc;gradientColor=#ffd966;entryPerimeter=0;" parent="1" source="141" target="29" edge="1">
                    <mxGeometry relative="1" as="geometry"/>
                </mxCell>
                <mxCell id="141" value="&lt;font style=&quot;&quot;&gt;QEMU VM&lt;br&gt;&lt;/font&gt;" style="rounded=0;whiteSpace=wrap;html=1;fillColor=none;strokeWidth=2;strokeColor=#d6b656;gradientColor=#ffd966;" parent="1" vertex="1">
                    <mxGeometry x="1954.9" y="208.31" width="108.1" height="20" as="geometry"/>
                </mxCell>
                <mxCell id="157" value="&lt;span style=&quot;&quot;&gt;&lt;font style=&quot;font-size: 12px;&quot;&gt;Linux kernel&lt;/font&gt;&lt;/span&gt;" style="rounded=0;whiteSpace=wrap;html=1;fillColor=none;strokeWidth=2;strokeColor=#0e8088;fontColor=default;" parent="1" vertex="1">
                    <mxGeometry x="1953" y="347.62" width="220" height="20" as="geometry"/>
                </mxCell>
                <mxCell id="166" style="edgeStyle=none;html=1;entryX=0.09;entryY=-0.065;entryDx=0;entryDy=0;entryPerimeter=0;strokeColor=#d6b656;strokeWidth=2;fontSize=12;startArrow=none;startFill=0;endArrow=classic;endFill=1;fillColor=#fff2cc;gradientColor=#ffd966;" parent="1" target="130" edge="1">
                    <mxGeometry relative="1" as="geometry">
                        <mxPoint x="1973" y="267.81" as="sourcePoint"/>
                    </mxGeometry>
                </mxCell>
                <mxCell id="133" value="&lt;font style=&quot;&quot;&gt;QEMU Hypervisor&lt;br&gt;&lt;/font&gt;" style="rounded=0;whiteSpace=wrap;html=1;fillColor=none;strokeWidth=2;strokeColor=#d6b656;gradientColor=#ffd966;" parent="1" vertex="1">
                    <mxGeometry x="1954.9" y="248.31" width="108.1" height="19" as="geometry"/>
                </mxCell>
                <mxCell id="159" value="&lt;b style=&quot;font-size: 12px;&quot;&gt;&lt;span style=&quot;&quot;&gt;OpenStack Compute Host (physical)&lt;/span&gt;&lt;/b&gt;" style="text;html=1;align=center;verticalAlign=middle;resizable=0;points=[];autosize=1;strokeColor=none;fillColor=none;fontSize=14;fontColor=default;" parent="1" vertex="1">
                    <mxGeometry x="1948.2800000000007" y="407.81" width="230" height="30" as="geometry"/>
                </mxCell>
                <mxCell id="162" value="&lt;font size=&quot;1&quot;&gt;&lt;b style=&quot;font-size: 12px;&quot;&gt;Type-0 Node&amp;nbsp;&lt;/b&gt;&lt;/font&gt;&lt;b style=&quot;font-size: 12px;&quot;&gt;(physical)&lt;/b&gt;" style="text;html=1;align=center;verticalAlign=middle;resizable=0;points=[];autosize=1;strokeColor=none;fillColor=none;fontSize=14;fontColor=default;" parent="1" vertex="1">
                    <mxGeometry x="1744.2600000000002" y="616.53" width="150" height="30" as="geometry"/>
                </mxCell>
                <mxCell id="163" style="edgeStyle=none;html=1;exitX=0.267;exitY=1.02;exitDx=0;exitDy=0;entryX=0.275;entryY=-0.044;entryDx=0;entryDy=0;strokeColor=#0e8088;strokeWidth=2;fontSize=21;startArrow=none;startFill=0;endArrow=classic;endFill=1;fillColor=#b0e3e6;exitPerimeter=0;entryPerimeter=0;" parent="1" source="157" target="125" edge="1">
                    <mxGeometry relative="1" as="geometry">
                        <mxPoint x="2012.52" y="369.24000000000007" as="sourcePoint"/>
                        <mxPoint x="2012.52" y="389.24000000000007" as="targetPoint"/>
                    </mxGeometry>
                </mxCell>
                <mxCell id="175" style="edgeStyle=none;html=1;exitX=0.244;exitY=0.108;exitDx=0;exitDy=0;entryX=0.443;entryY=-0.058;entryDx=0;entryDy=0;entryPerimeter=0;strokeColor=#82b366;strokeWidth=2;fontSize=14;startArrow=none;startFill=0;endArrow=classic;endFill=1;fillColor=#d5e8d4;gradientColor=#97d077;exitPerimeter=0;" parent="1" source="118" target="141" edge="1">
                    <mxGeometry relative="1" as="geometry"/>
                </mxCell>
                <mxCell id="176" style="edgeStyle=none;html=1;exitX=0;exitY=1;exitDx=0;exitDy=0;strokeColor=#82b366;strokeWidth=2;fontSize=14;startArrow=none;startFill=0;endArrow=classic;endFill=1;fillColor=#d5e8d4;gradientColor=#97d077;" parent="1" source="165" edge="1">
                    <mxGeometry relative="1" as="geometry">
                        <mxPoint x="2043" y="207.81" as="targetPoint"/>
                    </mxGeometry>
                </mxCell>
                <mxCell id="165" value="&lt;span style=&quot;&quot;&gt;&lt;font style=&quot;font-size: 12px;&quot;&gt;libvirtd&lt;br&gt;&lt;/font&gt;&lt;/span&gt;" style="rounded=0;whiteSpace=wrap;html=1;fillColor=none;strokeWidth=2;strokeColor=#82b366;gradientColor=#97d077;fontColor=default;" parent="1" vertex="1">
                    <mxGeometry x="2043" y="167.81" width="130.66" height="20" as="geometry"/>
                </mxCell>
                <mxCell id="177" style="edgeStyle=none;html=1;entryX=0.153;entryY=1.035;entryDx=0;entryDy=0;entryPerimeter=0;strokeColor=#d6b656;strokeWidth=2;fontSize=14;startArrow=none;startFill=0;endArrow=classic;endFill=1;fillColor=#fff2cc;gradientColor=#ffd966;exitX=1;exitY=0;exitDx=0;exitDy=0;" parent="1" source="141" target="165" edge="1">
                    <mxGeometry relative="1" as="geometry">
                        <mxPoint x="2092.8999999999996" y="212.53000000000003" as="sourcePoint"/>
                        <mxPoint x="2092.90862" y="189.19" as="targetPoint"/>
                    </mxGeometry>
                </mxCell>
                <mxCell id="178" style="edgeStyle=none;html=1;exitX=0.727;exitY=-0.034;exitDx=0;exitDy=0;strokeColor=#314354;strokeWidth=2;fontSize=12;startArrow=none;startFill=0;endArrow=classic;endFill=1;exitPerimeter=0;entryX=0.727;entryY=1.059;entryDx=0;entryDy=0;entryPerimeter=0;" parent="1" edge="1">
                    <mxGeometry relative="1" as="geometry">
                        <mxPoint x="2123.38" y="385.76000000000016" as="sourcePoint"/>
                        <mxPoint x="2123.38" y="367.62000000000006" as="targetPoint"/>
                    </mxGeometry>
                </mxCell>
                <mxCell id="179" style="edgeStyle=none;html=1;exitX=0.773;exitY=-0.001;exitDx=0;exitDy=0;entryX=0.774;entryY=1.07;entryDx=0;entryDy=0;entryPerimeter=0;strokeColor=#0e8088;strokeWidth=2;fontSize=12;startArrow=none;startFill=0;endArrow=classic;endFill=1;exitPerimeter=0;fillColor=#b0e3e6;" parent="1" source="157" target="130" edge="1">
                    <mxGeometry relative="1" as="geometry">
                        <mxPoint x="2123.5999999999995" y="347.6200000000002" as="sourcePoint"/>
                        <mxPoint x="2123.38" y="330.02000000000004" as="targetPoint"/>
                    </mxGeometry>
                </mxCell>
                <mxCell id="199" value="Host-Aggregation-0" style="rounded=0;whiteSpace=wrap;html=1;fillColor=none;strokeWidth=2;strokeColor=#314354;fontColor=default;" parent="1" vertex="1">
                    <mxGeometry x="1404" y="291.86000000000007" width="238.18" height="20" as="geometry"/>
                </mxCell>
                <mxCell id="248" value="" style="rounded=0;whiteSpace=wrap;html=1;fillColor=none;strokeWidth=3;strokeColor=#314354;fontColor=default;" parent="1" vertex="1">
                    <mxGeometry x="1483" y="507.80999999999995" width="209.76" height="138.16" as="geometry"/>
                </mxCell>
                <mxCell id="249" style="edgeStyle=none;html=1;exitX=0.269;exitY=1.03;exitDx=0;exitDy=0;entryX=0.269;entryY=-0.06;entryDx=0;entryDy=0;strokeColor=default;strokeWidth=2;fontSize=21;startArrow=none;startFill=0;endArrow=classic;endFill=1;exitPerimeter=0;entryPerimeter=0;" parent="1" source="251" target="254" edge="1">
                    <mxGeometry relative="1" as="geometry"/>
                </mxCell>
                <mxCell id="406" style="edgeStyle=none;html=1;exitX=0.5;exitY=0;exitDx=0;exitDy=0;strokeWidth=2;fillColor=#d5e8d4;gradientColor=#97d077;strokeColor=#82b366;startArrow=classic;startFill=1;endArrow=none;endFill=0;" parent="1" source="251" edge="1">
                    <mxGeometry relative="1" as="geometry">
                        <mxPoint x="1587.388888888889" y="459" as="targetPoint"/>
                    </mxGeometry>
                </mxCell>
                <mxCell id="251" value="&lt;span style=&quot;font-size: 12px;&quot;&gt;OpenCL or ROCm&lt;/span&gt;" style="rounded=0;whiteSpace=wrap;html=1;strokeWidth=2;fontSize=14;fillColor=none;fontColor=default;" parent="1" vertex="1">
                    <mxGeometry x="1493" y="515.97" width="189" height="20" as="geometry"/>
                </mxCell>
                <mxCell id="252" style="edgeStyle=none;html=1;exitX=0.272;exitY=1.034;exitDx=0;exitDy=0;entryX=0.272;entryY=-0.046;entryDx=0;entryDy=0;strokeColor=#0e8088;strokeWidth=2;fontSize=21;startArrow=none;startFill=0;endArrow=classic;endFill=1;fillColor=#b0e3e6;entryPerimeter=0;exitPerimeter=0;" parent="1" source="254" target="256" edge="1">
                    <mxGeometry relative="1" as="geometry"/>
                </mxCell>
                <mxCell id="253" style="edgeStyle=none;html=1;exitX=0.728;exitY=-0.042;exitDx=0;exitDy=0;entryX=0.727;entryY=1.064;entryDx=0;entryDy=0;entryPerimeter=0;strokeColor=#0e8088;strokeWidth=2;fontSize=12;startArrow=none;startFill=0;endArrow=classic;endFill=1;exitPerimeter=0;fillColor=#b0e3e6;" parent="1" source="254" target="251" edge="1">
                    <mxGeometry relative="1" as="geometry"/>
                </mxCell>
                <mxCell id="254" value="Windows NT or Linux kernel" style="rounded=0;whiteSpace=wrap;html=1;fillColor=none;strokeWidth=2;strokeColor=#0e8088;fontColor=default;" parent="1" vertex="1">
                    <mxGeometry x="1493" y="555.69" width="189" height="20" as="geometry"/>
                </mxCell>
                <mxCell id="255" style="edgeStyle=none;html=1;exitX=0.727;exitY=-0.034;exitDx=0;exitDy=0;strokeColor=#314354;strokeWidth=2;fontSize=12;startArrow=none;startFill=0;endArrow=classic;endFill=1;exitPerimeter=0;entryX=0.727;entryY=1.059;entryDx=0;entryDy=0;entryPerimeter=0;" parent="1" source="256" target="254" edge="1">
                    <mxGeometry relative="1" as="geometry">
                        <mxPoint x="1622" y="575.97" as="targetPoint"/>
                    </mxGeometry>
                </mxCell>
                <mxCell id="407" style="edgeStyle=none;html=1;exitX=0.908;exitY=1.097;exitDx=0;exitDy=0;strokeWidth=1;startArrow=none;startFill=0;endArrow=classic;endFill=1;entryX=1.012;entryY=1.013;entryDx=0;entryDy=0;entryPerimeter=0;dashed=1;fillColor=#647687;strokeColor=#314354;exitPerimeter=0;" parent="1" source="256" target="282" edge="1">
                    <mxGeometry relative="1" as="geometry">
                        <mxPoint x="2204" y="229.57142857142856" as="targetPoint"/>
                        <Array as="points">
                            <mxPoint x="1664" y="659"/>
                            <mxPoint x="2244" y="659"/>
                            <mxPoint x="2244" y="248"/>
                        </Array>
                    </mxGeometry>
                </mxCell>
                <mxCell id="256" value="&lt;span style=&quot;&quot;&gt;&lt;font style=&quot;font-size: 12px;&quot;&gt;Hardware (virtualisation enabled)&lt;/font&gt;&lt;/span&gt;" style="rounded=0;whiteSpace=wrap;html=1;fillColor=none;strokeWidth=2;strokeColor=#314354;fontColor=default;" parent="1" vertex="1">
                    <mxGeometry x="1493" y="596.5300000000002" width="189" height="20" as="geometry"/>
                </mxCell>
                <mxCell id="257" value="&lt;b style=&quot;&quot;&gt;&lt;font style=&quot;font-size: 14px;&quot;&gt;&amp;nbsp;&lt;/font&gt;&lt;/b&gt;" style="text;html=1;align=center;verticalAlign=middle;resizable=0;points=[];autosize=1;strokeColor=none;fillColor=none;fontSize=14;fontColor=default;" parent="1" vertex="1">
                    <mxGeometry x="1557" y="615.69" width="30" height="30" as="geometry"/>
                </mxCell>
                <mxCell id="260" value="&lt;font size=&quot;1&quot; style=&quot;&quot;&gt;&lt;b style=&quot;font-size: 12px;&quot;&gt;Type-1 Node&amp;nbsp;&lt;/b&gt;&lt;/font&gt;&lt;b style=&quot;font-size: 12px;&quot;&gt;(physical)&lt;/b&gt;" style="text;html=1;align=center;verticalAlign=middle;resizable=0;points=[];autosize=1;strokeColor=none;fillColor=none;fontSize=14;fontColor=default;" parent="1" vertex="1">
                    <mxGeometry x="1512.5000000000002" y="615.69" width="150" height="30" as="geometry"/>
                </mxCell>
                <mxCell id="261" value="" style="rounded=0;whiteSpace=wrap;html=1;fillColor=none;strokeWidth=3;strokeColor=#314354;fontColor=default;" parent="1" vertex="1">
                    <mxGeometry x="1253" y="387.81" width="209.76" height="258.16" as="geometry"/>
                </mxCell>
                <mxCell id="262" style="edgeStyle=none;html=1;exitX=0.269;exitY=1.03;exitDx=0;exitDy=0;entryX=0.269;entryY=-0.06;entryDx=0;entryDy=0;strokeColor=#b85450;strokeWidth=2;fontSize=21;startArrow=none;startFill=0;endArrow=classic;endFill=1;exitPerimeter=0;entryPerimeter=0;fillColor=#f8cecc;gradientColor=#ea6b66;" parent="1" target="267" edge="1">
                    <mxGeometry relative="1" as="geometry">
                        <mxPoint x="1313.841" y="536.5699999999999" as="sourcePoint"/>
                    </mxGeometry>
                </mxCell>
                <mxCell id="265" style="edgeStyle=none;html=1;exitX=0.272;exitY=1.034;exitDx=0;exitDy=0;entryX=0.272;entryY=-0.046;entryDx=0;entryDy=0;strokeColor=#0e8088;strokeWidth=2;fontSize=21;startArrow=none;startFill=0;endArrow=classic;endFill=1;fillColor=#b0e3e6;entryPerimeter=0;exitPerimeter=0;" parent="1" source="267" target="269" edge="1">
                    <mxGeometry relative="1" as="geometry"/>
                </mxCell>
                <mxCell id="266" style="edgeStyle=none;html=1;exitX=0.728;exitY=-0.042;exitDx=0;exitDy=0;entryX=0.727;entryY=1.064;entryDx=0;entryDy=0;entryPerimeter=0;strokeColor=#0e8088;strokeWidth=2;fontSize=12;startArrow=none;startFill=0;endArrow=classic;endFill=1;exitPerimeter=0;fillColor=#b0e3e6;" parent="1" source="267" edge="1">
                    <mxGeometry relative="1" as="geometry">
                        <mxPoint x="1400.403" y="537.25" as="targetPoint"/>
                    </mxGeometry>
                </mxCell>
                <mxCell id="267" value="Windows NT kernel" style="rounded=0;whiteSpace=wrap;html=1;fillColor=none;strokeWidth=2;strokeColor=#0e8088;fontColor=default;" parent="1" vertex="1">
                    <mxGeometry x="1263" y="555.69" width="189" height="20" as="geometry"/>
                </mxCell>
                <mxCell id="268" style="edgeStyle=none;html=1;exitX=0.727;exitY=-0.034;exitDx=0;exitDy=0;strokeColor=#314354;strokeWidth=2;fontSize=12;startArrow=none;startFill=0;endArrow=classic;endFill=1;exitPerimeter=0;entryX=0.727;entryY=1.059;entryDx=0;entryDy=0;entryPerimeter=0;" parent="1" source="269" target="267" edge="1">
                    <mxGeometry relative="1" as="geometry">
                        <mxPoint x="1392" y="575.97" as="targetPoint"/>
                    </mxGeometry>
                </mxCell>
                <mxCell id="269" value="&lt;span style=&quot;&quot;&gt;&lt;font style=&quot;font-size: 12px;&quot;&gt;Hardware (virtualisation enabled)&lt;/font&gt;&lt;/span&gt;" style="rounded=0;whiteSpace=wrap;html=1;fillColor=none;strokeWidth=2;strokeColor=#314354;fontColor=default;" parent="1" vertex="1">
                    <mxGeometry x="1263" y="596.5300000000002" width="189" height="20" as="geometry"/>
                </mxCell>
                <mxCell id="270" value="&lt;b style=&quot;&quot;&gt;&lt;font style=&quot;font-size: 14px;&quot;&gt;&amp;nbsp;&lt;/font&gt;&lt;/b&gt;" style="text;html=1;align=center;verticalAlign=middle;resizable=0;points=[];autosize=1;strokeColor=none;fillColor=none;fontSize=14;fontColor=default;" parent="1" vertex="1">
                    <mxGeometry x="1327" y="615.69" width="30" height="30" as="geometry"/>
                </mxCell>
                <mxCell id="309" style="edgeStyle=none;html=1;exitX=0.742;exitY=-0.033;exitDx=0;exitDy=0;strokeColor=#b85450;strokeWidth=2;fontSize=10;startArrow=none;startFill=0;endArrow=classic;endFill=1;fillColor=#f8cecc;exitPerimeter=0;" parent="1" source="272" edge="1">
                    <mxGeometry relative="1" as="geometry">
                        <mxPoint x="1403" y="497.80999999999995" as="targetPoint"/>
                    </mxGeometry>
                </mxCell>
                <mxCell id="272" value="&lt;span style=&quot;&quot;&gt;&lt;font style=&quot;&quot;&gt;Hypervisor Type 2&lt;br&gt;&lt;/font&gt;&lt;/span&gt;" style="rounded=0;whiteSpace=wrap;html=1;fillColor=none;strokeWidth=2;strokeColor=#b85450;" parent="1" vertex="1">
                    <mxGeometry x="1263" y="515.97" width="189" height="20" as="geometry"/>
                </mxCell>
                <mxCell id="273" value="&lt;font size=&quot;1&quot;&gt;&lt;b style=&quot;font-size: 12px;&quot;&gt;Type-2 Node&amp;nbsp;&lt;/b&gt;&lt;/font&gt;&lt;b style=&quot;font-size: 12px;&quot;&gt;(physical)&lt;/b&gt;" style="text;html=1;align=center;verticalAlign=middle;resizable=0;points=[];autosize=1;strokeColor=none;fillColor=none;fontSize=14;fontColor=default;" parent="1" vertex="1">
                    <mxGeometry x="1282.5000000000002" y="615.69" width="150" height="30" as="geometry"/>
                </mxCell>
                <mxCell id="274" style="edgeStyle=none;html=1;exitX=0.269;exitY=1.03;exitDx=0;exitDy=0;entryX=0.265;entryY=-0.071;entryDx=0;entryDy=0;strokeColor=default;strokeWidth=2;fontSize=21;startArrow=none;startFill=0;endArrow=classic;endFill=1;exitPerimeter=0;entryPerimeter=0;" parent="1" source="276" target="278" edge="1">
                    <mxGeometry relative="1" as="geometry"/>
                </mxCell>
                <mxCell id="275" style="edgeStyle=none;html=1;exitX=0.728;exitY=0;exitDx=0;exitDy=0;entryX=0.725;entryY=1.064;entryDx=0;entryDy=0;entryPerimeter=0;strokeWidth=2;fontSize=12;startArrow=none;startFill=0;endArrow=classic;endFill=1;exitPerimeter=0;fillColor=none;" parent="1" source="276" target="280" edge="1">
                    <mxGeometry relative="1" as="geometry"/>
                </mxCell>
                <mxCell id="276" value="&lt;span style=&quot;font-size: 12px;&quot;&gt;KVM-Hypervisor&amp;nbsp;&lt;/span&gt;" style="rounded=0;whiteSpace=wrap;html=1;strokeWidth=2;fontSize=14;fillColor=none;fontColor=default;" parent="1" vertex="1">
                    <mxGeometry x="1263" y="437.80999999999995" width="189" height="20" as="geometry"/>
                </mxCell>
                <mxCell id="277" style="edgeStyle=none;html=1;exitX=0.728;exitY=-0.042;exitDx=0;exitDy=0;entryX=0.727;entryY=1.064;entryDx=0;entryDy=0;entryPerimeter=0;strokeColor=#0e8088;strokeWidth=2;fontSize=12;startArrow=none;startFill=0;endArrow=classic;endFill=1;exitPerimeter=0;fillColor=#b0e3e6;" parent="1" source="278" target="276" edge="1">
                    <mxGeometry relative="1" as="geometry"/>
                </mxCell>
                <mxCell id="308" style="edgeStyle=none;html=1;exitX=0.259;exitY=1.057;exitDx=0;exitDy=0;entryX=0.261;entryY=-0.065;entryDx=0;entryDy=0;entryPerimeter=0;strokeWidth=2;fontSize=10;startArrow=none;startFill=0;endArrow=classic;endFill=1;exitPerimeter=0;strokeColor=#009999;" parent="1" source="278" target="272" edge="1">
                    <mxGeometry relative="1" as="geometry"/>
                </mxCell>
                <mxCell id="278" value="&lt;span style=&quot;&quot;&gt;&lt;font style=&quot;font-size: 12px;&quot;&gt;Linux kernel&lt;/font&gt;&lt;/span&gt;" style="rounded=0;whiteSpace=wrap;html=1;fillColor=none;strokeWidth=2;strokeColor=#0e8088;fontColor=default;" parent="1" vertex="1">
                    <mxGeometry x="1263.38" y="476.80999999999995" width="189" height="20" as="geometry"/>
                </mxCell>
                <mxCell id="279" style="edgeStyle=none;html=1;exitX=0.275;exitY=1.034;exitDx=0;exitDy=0;entryX=0.274;entryY=-0.098;entryDx=0;entryDy=0;strokeColor=#82b366;strokeWidth=2;fontSize=21;startArrow=none;startFill=0;endArrow=classic;endFill=1;entryPerimeter=0;fillColor=#d5e8d4;gradientColor=#97d077;exitPerimeter=0;" parent="1" source="280" target="276" edge="1">
                    <mxGeometry relative="1" as="geometry"/>
                </mxCell>
                <mxCell id="321" style="edgeStyle=none;html=1;exitX=1;exitY=0.25;exitDx=0;exitDy=0;strokeColor=#82b366;strokeWidth=2;fontSize=10;startArrow=classic;startFill=1;endArrow=none;endFill=0;fillColor=#d5e8d4;gradientColor=#97d077;" parent="1" source="280" edge="1">
                    <mxGeometry relative="1" as="geometry">
                        <mxPoint x="1823" y="457.80999999999995" as="targetPoint"/>
                        <Array as="points">
                            <mxPoint x="1473" y="401.81"/>
                            <mxPoint x="1473" y="457.80999999999995"/>
                        </Array>
                    </mxGeometry>
                </mxCell>
                <mxCell id="323" style="edgeStyle=none;html=1;exitX=1;exitY=0.75;exitDx=0;exitDy=0;strokeColor=#82b366;strokeWidth=2;fontSize=10;startArrow=classic;startFill=1;endArrow=none;endFill=0;fillColor=#d5e8d4;gradientColor=#97d077;" parent="1" source="280" edge="1">
                    <mxGeometry relative="1" as="geometry">
                        <mxPoint x="1843" y="447.80999999999995" as="targetPoint"/>
                        <Array as="points">
                            <mxPoint x="1483" y="411.81"/>
                            <mxPoint x="1483" y="447.80999999999995"/>
                        </Array>
                    </mxGeometry>
                </mxCell>
                <mxCell id="280" value="&lt;span style=&quot;&quot;&gt;&lt;font style=&quot;font-size: 12px;&quot;&gt;&lt;br&gt;libvirtd&lt;br&gt;&lt;br&gt;&lt;/font&gt;&lt;/span&gt;" style="rounded=0;whiteSpace=wrap;html=1;fillColor=none;strokeWidth=2;strokeColor=#82b366;gradientColor=#97d077;fontColor=default;" parent="1" vertex="1">
                    <mxGeometry x="1263" y="396.81" width="189" height="20" as="geometry"/>
                </mxCell>
                <mxCell id="316" style="edgeStyle=none;html=1;exitX=1;exitY=0;exitDx=0;exitDy=0;dashed=1;strokeWidth=1;fontSize=10;startArrow=classic;startFill=1;endArrow=none;endFill=0;fillColor=none;" parent="1" source="281" edge="1">
                    <mxGeometry relative="1" as="geometry">
                        <mxPoint x="2203" y="227.81" as="targetPoint"/>
                    </mxGeometry>
                </mxCell>
                <mxCell id="281" value="&lt;font style=&quot;font-size: 10px;&quot;&gt;Host-agg-0&lt;/font&gt;" style="rounded=0;whiteSpace=wrap;html=1;strokeWidth=2;fontSize=14;fillColor=none;fontColor=default;dashed=1;" parent="1" vertex="1">
                    <mxGeometry x="2083" y="208.31" width="90" height="19.5" as="geometry"/>
                </mxCell>
                <mxCell id="317" style="edgeStyle=none;html=1;exitX=1;exitY=1;exitDx=0;exitDy=0;dashed=1;strokeWidth=1;fontSize=10;startArrow=classic;startFill=1;endArrow=none;endFill=0;fillColor=none;" parent="1" source="282" edge="1">
                    <mxGeometry relative="1" as="geometry">
                        <mxPoint x="2203" y="227.81" as="targetPoint"/>
                    </mxGeometry>
                </mxCell>
                <mxCell id="282" value="&lt;font style=&quot;font-size: 10px;&quot;&gt;...&lt;/font&gt;" style="rounded=0;whiteSpace=wrap;html=1;strokeWidth=2;fontSize=14;fillColor=none;fontColor=default;dashed=1;" parent="1" vertex="1">
                    <mxGeometry x="2083" y="227.81" width="90.28" height="20" as="geometry"/>
                </mxCell>
                <mxCell id="310" style="edgeStyle=none;html=1;entryX=0.467;entryY=0.002;entryDx=0;entryDy=0;entryPerimeter=0;strokeColor=#82b366;strokeWidth=2;fontSize=10;startArrow=none;startFill=0;endArrow=classic;endFill=1;fillColor=#d5e8d4;gradientColor=#97d077;" parent="1" source="Me8EsNK5uaYhPXKDHx72-7" target="112" edge="1">
                    <mxGeometry relative="1" as="geometry">
                        <Array as="points">
                            <mxPoint x="2063" y="457.80999999999995"/>
                            <mxPoint x="1813" y="457.80999999999995"/>
                        </Array>
                    </mxGeometry>
                </mxCell>
                <mxCell id="311" style="edgeStyle=none;html=1;entryX=1;entryY=0.5;entryDx=0;entryDy=0;strokeColor=#82b366;strokeWidth=2;fontSize=10;startArrow=none;startFill=0;endArrow=classic;endFill=1;fillColor=#d5e8d4;gradientColor=#97d077;" parent="1" target="165" edge="1">
                    <mxGeometry relative="1" as="geometry">
                        <mxPoint x="2063" y="477.80999999999995" as="sourcePoint"/>
                        <Array as="points">
                            <mxPoint x="2063" y="457.80999999999995"/>
                            <mxPoint x="2193" y="457.80999999999995"/>
                            <mxPoint x="2193" y="177.81"/>
                        </Array>
                    </mxGeometry>
                </mxCell>
                <mxCell id="322" style="edgeStyle=none;html=1;strokeColor=#82b366;strokeWidth=2;fontSize=10;startArrow=none;startFill=0;endArrow=classic;endFill=1;fillColor=#d5e8d4;gradientColor=#97d077;entryX=0.573;entryY=-0.051;entryDx=0;entryDy=0;entryPerimeter=0;" parent="1" source="164" target="112" edge="1">
                    <mxGeometry relative="1" as="geometry">
                        <mxPoint x="1833" y="477.80999999999995" as="targetPoint"/>
                        <Array as="points">
                            <mxPoint x="1933" y="177.81"/>
                            <mxPoint x="1933" y="447.80999999999995"/>
                            <mxPoint x="1833" y="447.80999999999995"/>
                        </Array>
                    </mxGeometry>
                </mxCell>
                <mxCell id="312" style="edgeStyle=none;html=1;exitX=1;exitY=0.5;exitDx=0;exitDy=0;strokeColor=#6F0000;strokeWidth=2;fontSize=10;startArrow=none;startFill=0;endArrow=classic;endFill=1;fillColor=#a20025;entryX=0.991;entryY=0.506;entryDx=0;entryDy=0;entryPerimeter=0;" parent="1" source="Me8EsNK5uaYhPXKDHx72-11" target="51" edge="1">
                    <mxGeometry relative="1" as="geometry">
                        <mxPoint x="2183" y="287.81" as="targetPoint"/>
                        <Array as="points">
                            <mxPoint x="2203" y="537.81"/>
                            <mxPoint x="2203" y="287.81"/>
                        </Array>
                    </mxGeometry>
                </mxCell>
                <mxCell id="328" style="edgeStyle=none;html=1;exitX=1.017;exitY=0.502;exitDx=0;exitDy=0;entryX=0.945;entryY=1.053;entryDx=0;entryDy=0;entryPerimeter=0;dashed=1;strokeColor=#314354;strokeWidth=1;fontSize=10;startArrow=classic;startFill=1;endArrow=none;endFill=0;exitPerimeter=0;" parent="1" source="281" target="Me8EsNK5uaYhPXKDHx72-35" edge="1">
                    <mxGeometry relative="1" as="geometry">
                        <Array as="points">
                            <mxPoint x="2233" y="217.81"/>
                            <mxPoint x="2233" y="677.81"/>
                            <mxPoint x="1903" y="677.81"/>
                        </Array>
                    </mxGeometry>
                </mxCell>
                <mxCell id="329" style="edgeStyle=none;html=1;exitX=1;exitY=0.5;exitDx=0;exitDy=0;dashed=1;strokeColor=#314354;strokeWidth=1;fontSize=10;startArrow=classic;startFill=1;endArrow=none;endFill=0;entryX=0.932;entryY=1.156;entryDx=0;entryDy=0;entryPerimeter=0;" parent="1" source="282" target="269" edge="1">
                    <mxGeometry relative="1" as="geometry">
                        <mxPoint x="2223" y="427.80999999999995" as="targetPoint"/>
                        <Array as="points">
                            <mxPoint x="2223" y="237.81"/>
                            <mxPoint x="2223" y="667.81"/>
                            <mxPoint x="1439" y="667.81"/>
                        </Array>
                    </mxGeometry>
                </mxCell>
                <mxCell id="368" value="" style="rounded=0;whiteSpace=wrap;html=1;fillColor=none;strokeWidth=3;strokeColor=#6F0000;fontColor=default;" parent="1" vertex="1">
                    <mxGeometry x="1682" y="299.81" width="240" height="137" as="geometry"/>
                </mxCell>
                <mxCell id="374" value="Hardware" style="rounded=0;whiteSpace=wrap;html=1;fillColor=none;strokeWidth=2;strokeColor=#314354;fontColor=default;" parent="1" vertex="1">
                    <mxGeometry x="1690.48" y="386.81" width="220.28" height="20" as="geometry"/>
                </mxCell>
                <mxCell id="375" style="edgeStyle=none;html=1;exitX=0.269;exitY=0.996;exitDx=0;exitDy=0;entryX=0.267;entryY=-0.042;entryDx=0;entryDy=0;entryPerimeter=0;strokeColor=default;strokeWidth=2;fontSize=12;startArrow=none;startFill=0;endArrow=classic;endFill=1;exitPerimeter=0;" parent="1" target="382" edge="1">
                    <mxGeometry relative="1" as="geometry">
                        <mxPoint x="1749.6599999999999" y="327.7300000000001" as="sourcePoint"/>
                    </mxGeometry>
                </mxCell>
                <mxCell id="382" value="&lt;span style=&quot;&quot;&gt;&lt;font style=&quot;font-size: 12px;&quot;&gt;Linux kernel&lt;/font&gt;&lt;/span&gt;" style="rounded=0;whiteSpace=wrap;html=1;fillColor=none;strokeWidth=2;strokeColor=#0e8088;fontColor=default;" parent="1" vertex="1">
                    <mxGeometry x="1690.48" y="347.62" width="220" height="20" as="geometry"/>
                </mxCell>
                <mxCell id="385" value="&lt;b style=&quot;font-size: 12px;&quot;&gt;&lt;span style=&quot;&quot;&gt;OpenStack Storage-Node&lt;/span&gt;&lt;/b&gt;" style="text;html=1;align=center;verticalAlign=middle;resizable=0;points=[];autosize=1;strokeColor=none;fillColor=none;fontSize=14;fontColor=default;" parent="1" vertex="1">
                    <mxGeometry x="1715.7600000000007" y="407.81" width="170" height="30" as="geometry"/>
                </mxCell>
                <mxCell id="386" style="edgeStyle=none;html=1;exitX=0.267;exitY=1.02;exitDx=0;exitDy=0;entryX=0.275;entryY=-0.044;entryDx=0;entryDy=0;strokeColor=#0e8088;strokeWidth=2;fontSize=21;startArrow=none;startFill=0;endArrow=classic;endFill=1;fillColor=#b0e3e6;exitPerimeter=0;entryPerimeter=0;" parent="1" source="382" target="374" edge="1">
                    <mxGeometry relative="1" as="geometry">
                        <mxPoint x="1750" y="369.24000000000007" as="sourcePoint"/>
                        <mxPoint x="1750" y="389.24000000000007" as="targetPoint"/>
                    </mxGeometry>
                </mxCell>
                <mxCell id="391" style="edgeStyle=none;html=1;exitX=0.727;exitY=-0.034;exitDx=0;exitDy=0;strokeColor=#314354;strokeWidth=2;fontSize=12;startArrow=none;startFill=0;endArrow=classic;endFill=1;exitPerimeter=0;entryX=0.727;entryY=1.059;entryDx=0;entryDy=0;entryPerimeter=0;" parent="1" edge="1">
                    <mxGeometry relative="1" as="geometry">
                        <mxPoint x="1860.8600000000001" y="385.7600000000003" as="sourcePoint"/>
                        <mxPoint x="1860.8600000000001" y="367.61999999999995" as="targetPoint"/>
                    </mxGeometry>
                </mxCell>
                <mxCell id="392" style="edgeStyle=none;html=1;exitX=0.773;exitY=-0.001;exitDx=0;exitDy=0;entryX=0.774;entryY=1.07;entryDx=0;entryDy=0;entryPerimeter=0;strokeColor=#0e8088;strokeWidth=2;fontSize=12;startArrow=none;startFill=0;endArrow=classic;endFill=1;exitPerimeter=0;fillColor=#b0e3e6;" parent="1" source="382" edge="1">
                    <mxGeometry relative="1" as="geometry">
                        <mxPoint x="1861.0799999999995" y="347.6200000000002" as="sourcePoint"/>
                        <mxPoint x="1860.7600000000002" y="329.2100000000001" as="targetPoint"/>
                    </mxGeometry>
                </mxCell>
                <mxCell id="397" value="Open Stack storage services" style="rounded=0;whiteSpace=wrap;html=1;fillColor=none;strokeWidth=2;strokeColor=#6F0000;fontColor=default;" parent="1" vertex="1">
                    <mxGeometry x="1692" y="308.62" width="220" height="20" as="geometry"/>
                </mxCell>
                <mxCell id="398" style="edgeStyle=none;html=1;exitX=1;exitY=0.25;exitDx=0;exitDy=0;fillColor=#a20025;strokeColor=#6F0000;strokeWidth=2;entryX=0.507;entryY=-0.001;entryDx=0;entryDy=0;entryPerimeter=0;" parent="1" source="Me8EsNK5uaYhPXKDHx72-11" target="397" edge="1">
                    <mxGeometry relative="1" as="geometry">
                        <Array as="points">
                            <mxPoint x="2254" y="529"/>
                            <mxPoint x="2254" y="149"/>
                            <mxPoint x="1804" y="149"/>
                        </Array>
                        <mxPoint x="2194" y="-1" as="targetPoint"/>
                    </mxGeometry>
                </mxCell>
                <mxCell id="399" style="edgeStyle=none;html=1;strokeWidth=2;exitX=0.084;exitY=0.029;exitDx=0;exitDy=0;fillColor=#fff2cc;gradientColor=#ffd966;strokeColor=#d6b656;exitPerimeter=0;entryX=1;entryY=0;entryDx=0;entryDy=0;dashed=1;" parent="1" source="141" target="374" edge="1">
                    <mxGeometry relative="1" as="geometry">
                        <mxPoint x="1964" y="129" as="targetPoint"/>
                    </mxGeometry>
                </mxCell>
                <mxCell id="401" value="CPU" style="rounded=0;whiteSpace=wrap;html=1;fillColor=none;strokeWidth=2;strokeColor=#314354;fontColor=default;" parent="1" vertex="1">
                    <mxGeometry x="1485" y="312.17" width="80" height="21.69" as="geometry"/>
                </mxCell>
                <mxCell id="402" value="Memory" style="rounded=0;whiteSpace=wrap;html=1;fillColor=none;strokeWidth=2;strokeColor=#314354;fontColor=default;" parent="1" vertex="1">
                    <mxGeometry x="1404" y="312.17" width="81" height="21.69" as="geometry"/>
                </mxCell>
                <mxCell id="408" style="edgeStyle=none;html=1;exitX=1;exitY=0;exitDx=0;exitDy=0;entryX=0;entryY=0.75;entryDx=0;entryDy=0;dashed=1;fillColor=#647687;strokeColor=#314354;" edge="1" parent="1" source="403" target="281">
                    <mxGeometry relative="1" as="geometry"/>
                </mxCell>
                <mxCell id="403" value="Storage" style="rounded=0;whiteSpace=wrap;html=1;fillColor=none;strokeWidth=2;strokeColor=#314354;fontColor=default;" parent="1" vertex="1">
                    <mxGeometry x="1565" y="312.17" width="77.18" height="21.69" as="geometry"/>
                </mxCell>
            </root>
        </mxGraphModel>
    </diagram>
</mxfile>